<mxfile host="app.diagrams.net" agent="Mozilla/5.0 (Windows NT 10.0; Win64; x64) AppleWebKit/537.36 (KHTML, like Gecko) Chrome/126.0.0.0 Safari/537.36" version="24.7.4">
  <diagram name="Halaman-1" id="TcKm-kOlcTy7SVakDyUW">
    <mxGraphModel dx="1363" dy="846" grid="1" gridSize="10" guides="1" tooltips="1" connect="1" arrows="1" fold="1" page="1" pageScale="1" pageWidth="827" pageHeight="1169" math="0" shadow="0">
      <root>
        <mxCell id="0" />
        <mxCell id="1" parent="0" />
        <mxCell id="IURkge2gJeS1-LeG-Tbx-1" value="Mahasiswa" style="whiteSpace=wrap;html=1;align=center;" vertex="1" parent="1">
          <mxGeometry x="140" y="270" width="90" height="50" as="geometry" />
        </mxCell>
        <mxCell id="IURkge2gJeS1-LeG-Tbx-3" value="mendaftar" style="shape=rhombus;perimeter=rhombusPerimeter;whiteSpace=wrap;html=1;align=center;" vertex="1" parent="1">
          <mxGeometry x="350" y="250" width="80" height="90" as="geometry" />
        </mxCell>
        <mxCell id="IURkge2gJeS1-LeG-Tbx-7" value="alamat" style="ellipse;whiteSpace=wrap;html=1;align=center;" vertex="1" parent="1">
          <mxGeometry x="30" y="330" width="70" height="50" as="geometry" />
        </mxCell>
        <mxCell id="IURkge2gJeS1-LeG-Tbx-8" value="nim" style="ellipse;whiteSpace=wrap;html=1;align=center;fontStyle=4;" vertex="1" parent="1">
          <mxGeometry x="25" y="210" width="75" height="50" as="geometry" />
        </mxCell>
        <mxCell id="IURkge2gJeS1-LeG-Tbx-9" value="" style="endArrow=none;html=1;rounded=0;exitX=1;exitY=0.5;exitDx=0;exitDy=0;entryX=0;entryY=0.5;entryDx=0;entryDy=0;" edge="1" parent="1" source="IURkge2gJeS1-LeG-Tbx-8" target="IURkge2gJeS1-LeG-Tbx-1">
          <mxGeometry width="50" height="50" relative="1" as="geometry">
            <mxPoint x="330" y="290" as="sourcePoint" />
            <mxPoint x="380" y="240" as="targetPoint" />
          </mxGeometry>
        </mxCell>
        <mxCell id="IURkge2gJeS1-LeG-Tbx-10" value="jurusan" style="ellipse;whiteSpace=wrap;html=1;align=center;" vertex="1" parent="1">
          <mxGeometry x="10" y="270" width="70" height="50" as="geometry" />
        </mxCell>
        <mxCell id="IURkge2gJeS1-LeG-Tbx-12" value="" style="endArrow=none;html=1;rounded=0;exitX=1;exitY=0.5;exitDx=0;exitDy=0;entryX=0;entryY=0.5;entryDx=0;entryDy=0;" edge="1" parent="1" source="IURkge2gJeS1-LeG-Tbx-10" target="IURkge2gJeS1-LeG-Tbx-1">
          <mxGeometry width="50" height="50" relative="1" as="geometry">
            <mxPoint x="330" y="290" as="sourcePoint" />
            <mxPoint x="380" y="240" as="targetPoint" />
          </mxGeometry>
        </mxCell>
        <mxCell id="IURkge2gJeS1-LeG-Tbx-13" value="" style="endArrow=none;html=1;rounded=0;exitX=0.978;exitY=0.367;exitDx=0;exitDy=0;exitPerimeter=0;entryX=0;entryY=0.5;entryDx=0;entryDy=0;" edge="1" parent="1" source="IURkge2gJeS1-LeG-Tbx-7" target="IURkge2gJeS1-LeG-Tbx-1">
          <mxGeometry width="50" height="50" relative="1" as="geometry">
            <mxPoint x="330" y="290" as="sourcePoint" />
            <mxPoint x="380" y="240" as="targetPoint" />
          </mxGeometry>
        </mxCell>
        <mxCell id="IURkge2gJeS1-LeG-Tbx-14" value="nama" style="ellipse;whiteSpace=wrap;html=1;align=center;" vertex="1" parent="1">
          <mxGeometry x="147.5" y="190" width="75" height="50" as="geometry" />
        </mxCell>
        <mxCell id="IURkge2gJeS1-LeG-Tbx-15" value="" style="endArrow=none;html=1;rounded=0;exitX=0.5;exitY=0;exitDx=0;exitDy=0;entryX=0.5;entryY=1;entryDx=0;entryDy=0;" edge="1" parent="1" source="IURkge2gJeS1-LeG-Tbx-1" target="IURkge2gJeS1-LeG-Tbx-14">
          <mxGeometry width="50" height="50" relative="1" as="geometry">
            <mxPoint x="330" y="290" as="sourcePoint" />
            <mxPoint x="380" y="240" as="targetPoint" />
          </mxGeometry>
        </mxCell>
        <mxCell id="IURkge2gJeS1-LeG-Tbx-16" value="nama_depan" style="ellipse;whiteSpace=wrap;html=1;align=center;" vertex="1" parent="1">
          <mxGeometry x="50" y="135" width="100" height="50" as="geometry" />
        </mxCell>
        <mxCell id="IURkge2gJeS1-LeG-Tbx-17" value="nama_tengah" style="ellipse;whiteSpace=wrap;html=1;align=center;" vertex="1" parent="1">
          <mxGeometry x="135" y="80" width="100" height="50" as="geometry" />
        </mxCell>
        <mxCell id="IURkge2gJeS1-LeG-Tbx-18" value="nama_belakang" style="ellipse;whiteSpace=wrap;html=1;align=center;" vertex="1" parent="1">
          <mxGeometry x="210" y="135" width="100" height="50" as="geometry" />
        </mxCell>
        <mxCell id="IURkge2gJeS1-LeG-Tbx-19" value="" style="endArrow=none;html=1;rounded=0;exitX=0.5;exitY=0;exitDx=0;exitDy=0;entryX=0.5;entryY=1;entryDx=0;entryDy=0;" edge="1" parent="1" source="IURkge2gJeS1-LeG-Tbx-14" target="IURkge2gJeS1-LeG-Tbx-17">
          <mxGeometry width="50" height="50" relative="1" as="geometry">
            <mxPoint x="330" y="290" as="sourcePoint" />
            <mxPoint x="380" y="240" as="targetPoint" />
          </mxGeometry>
        </mxCell>
        <mxCell id="IURkge2gJeS1-LeG-Tbx-20" value="" style="endArrow=none;html=1;rounded=0;exitX=0.5;exitY=0;exitDx=0;exitDy=0;entryX=0;entryY=0.5;entryDx=0;entryDy=0;" edge="1" parent="1" source="IURkge2gJeS1-LeG-Tbx-14" target="IURkge2gJeS1-LeG-Tbx-18">
          <mxGeometry width="50" height="50" relative="1" as="geometry">
            <mxPoint x="330" y="290" as="sourcePoint" />
            <mxPoint x="380" y="240" as="targetPoint" />
          </mxGeometry>
        </mxCell>
        <mxCell id="IURkge2gJeS1-LeG-Tbx-21" value="" style="endArrow=none;html=1;rounded=0;exitX=0.5;exitY=0;exitDx=0;exitDy=0;entryX=1;entryY=0.5;entryDx=0;entryDy=0;" edge="1" parent="1" source="IURkge2gJeS1-LeG-Tbx-14" target="IURkge2gJeS1-LeG-Tbx-16">
          <mxGeometry width="50" height="50" relative="1" as="geometry">
            <mxPoint x="330" y="290" as="sourcePoint" />
            <mxPoint x="380" y="240" as="targetPoint" />
          </mxGeometry>
        </mxCell>
        <mxCell id="IURkge2gJeS1-LeG-Tbx-22" value="" style="endArrow=none;html=1;rounded=0;exitX=1;exitY=0.5;exitDx=0;exitDy=0;entryX=0;entryY=0.5;entryDx=0;entryDy=0;" edge="1" parent="1" source="IURkge2gJeS1-LeG-Tbx-1" target="IURkge2gJeS1-LeG-Tbx-3">
          <mxGeometry width="50" height="50" relative="1" as="geometry">
            <mxPoint x="330" y="290" as="sourcePoint" />
            <mxPoint x="380" y="240" as="targetPoint" />
          </mxGeometry>
        </mxCell>
        <mxCell id="IURkge2gJeS1-LeG-Tbx-24" value="many" style="edgeLabel;html=1;align=center;verticalAlign=middle;resizable=0;points=[];" vertex="1" connectable="0" parent="IURkge2gJeS1-LeG-Tbx-22">
          <mxGeometry x="-0.0125" y="-2" relative="1" as="geometry">
            <mxPoint y="8" as="offset" />
          </mxGeometry>
        </mxCell>
        <mxCell id="IURkge2gJeS1-LeG-Tbx-25" value="jurusan" style="ellipse;whiteSpace=wrap;html=1;align=center;" vertex="1" parent="1">
          <mxGeometry x="310" y="150" width="70" height="50" as="geometry" />
        </mxCell>
        <mxCell id="IURkge2gJeS1-LeG-Tbx-26" value="alamat" style="ellipse;whiteSpace=wrap;html=1;align=center;" vertex="1" parent="1">
          <mxGeometry x="270" y="210" width="70" height="50" as="geometry" />
        </mxCell>
        <mxCell id="IURkge2gJeS1-LeG-Tbx-27" value="" style="endArrow=none;html=1;rounded=0;exitX=0.5;exitY=0;exitDx=0;exitDy=0;entryX=1;entryY=0.5;entryDx=0;entryDy=0;" edge="1" parent="1" source="IURkge2gJeS1-LeG-Tbx-3" target="IURkge2gJeS1-LeG-Tbx-26">
          <mxGeometry width="50" height="50" relative="1" as="geometry">
            <mxPoint x="430" y="290" as="sourcePoint" />
            <mxPoint x="480" y="240" as="targetPoint" />
          </mxGeometry>
        </mxCell>
        <mxCell id="IURkge2gJeS1-LeG-Tbx-28" value="" style="endArrow=none;html=1;rounded=0;exitX=0.5;exitY=0;exitDx=0;exitDy=0;entryX=0.578;entryY=1;entryDx=0;entryDy=0;entryPerimeter=0;" edge="1" parent="1" source="IURkge2gJeS1-LeG-Tbx-3" target="IURkge2gJeS1-LeG-Tbx-25">
          <mxGeometry width="50" height="50" relative="1" as="geometry">
            <mxPoint x="430" y="290" as="sourcePoint" />
            <mxPoint x="480" y="240" as="targetPoint" />
          </mxGeometry>
        </mxCell>
        <mxCell id="IURkge2gJeS1-LeG-Tbx-29" value="nim" style="ellipse;whiteSpace=wrap;html=1;align=center;fontStyle=4;" vertex="1" parent="1">
          <mxGeometry x="400" y="150" width="70" height="50" as="geometry" />
        </mxCell>
        <mxCell id="IURkge2gJeS1-LeG-Tbx-30" value="" style="endArrow=none;html=1;rounded=0;exitX=0.5;exitY=0;exitDx=0;exitDy=0;entryX=0.5;entryY=1;entryDx=0;entryDy=0;" edge="1" parent="1" source="IURkge2gJeS1-LeG-Tbx-3" target="IURkge2gJeS1-LeG-Tbx-29">
          <mxGeometry width="50" height="50" relative="1" as="geometry">
            <mxPoint x="430" y="290" as="sourcePoint" />
            <mxPoint x="480" y="240" as="targetPoint" />
          </mxGeometry>
        </mxCell>
        <mxCell id="IURkge2gJeS1-LeG-Tbx-31" value="nama" style="ellipse;whiteSpace=wrap;html=1;align=center;" vertex="1" parent="1">
          <mxGeometry x="440" y="210" width="70" height="50" as="geometry" />
        </mxCell>
        <mxCell id="IURkge2gJeS1-LeG-Tbx-32" value="" style="endArrow=none;html=1;rounded=0;exitX=0.5;exitY=0;exitDx=0;exitDy=0;entryX=0;entryY=0.5;entryDx=0;entryDy=0;" edge="1" parent="1" source="IURkge2gJeS1-LeG-Tbx-3" target="IURkge2gJeS1-LeG-Tbx-31">
          <mxGeometry width="50" height="50" relative="1" as="geometry">
            <mxPoint x="430" y="290" as="sourcePoint" />
            <mxPoint x="480" y="240" as="targetPoint" />
          </mxGeometry>
        </mxCell>
        <mxCell id="IURkge2gJeS1-LeG-Tbx-33" value="" style="endArrow=none;html=1;rounded=0;exitX=1;exitY=0.5;exitDx=0;exitDy=0;entryX=0;entryY=0.5;entryDx=0;entryDy=0;" edge="1" parent="1" source="IURkge2gJeS1-LeG-Tbx-3" target="IURkge2gJeS1-LeG-Tbx-34">
          <mxGeometry width="50" height="50" relative="1" as="geometry">
            <mxPoint x="430" y="290" as="sourcePoint" />
            <mxPoint x="600" y="290" as="targetPoint" />
          </mxGeometry>
        </mxCell>
        <mxCell id="IURkge2gJeS1-LeG-Tbx-35" value="many" style="edgeLabel;html=1;align=center;verticalAlign=middle;resizable=0;points=[];" vertex="1" connectable="0" parent="IURkge2gJeS1-LeG-Tbx-33">
          <mxGeometry x="0.0333" y="1" relative="1" as="geometry">
            <mxPoint y="11" as="offset" />
          </mxGeometry>
        </mxCell>
        <mxCell id="IURkge2gJeS1-LeG-Tbx-34" value="Anggota&lt;div&gt;perpustakaan&lt;/div&gt;" style="whiteSpace=wrap;html=1;align=center;" vertex="1" parent="1">
          <mxGeometry x="580" y="267.5" width="100" height="55" as="geometry" />
        </mxCell>
        <mxCell id="IURkge2gJeS1-LeG-Tbx-36" value="&lt;div&gt;nomor anggota&lt;/div&gt;" style="ellipse;whiteSpace=wrap;html=1;align=center;fontStyle=4;" vertex="1" parent="1">
          <mxGeometry x="520" y="210" width="90" height="50" as="geometry" />
        </mxCell>
        <mxCell id="IURkge2gJeS1-LeG-Tbx-37" value="nama" style="ellipse;whiteSpace=wrap;html=1;align=center;" vertex="1" parent="1">
          <mxGeometry x="550" y="150" width="70" height="50" as="geometry" />
        </mxCell>
        <mxCell id="IURkge2gJeS1-LeG-Tbx-38" value="" style="endArrow=none;html=1;rounded=0;entryX=1;entryY=0.5;entryDx=0;entryDy=0;exitX=0.5;exitY=0;exitDx=0;exitDy=0;" edge="1" parent="1" source="IURkge2gJeS1-LeG-Tbx-34" target="IURkge2gJeS1-LeG-Tbx-36">
          <mxGeometry width="50" height="50" relative="1" as="geometry">
            <mxPoint x="430" y="290" as="sourcePoint" />
            <mxPoint x="480" y="240" as="targetPoint" />
          </mxGeometry>
        </mxCell>
        <mxCell id="IURkge2gJeS1-LeG-Tbx-39" value="" style="endArrow=none;html=1;rounded=0;entryX=1;entryY=1;entryDx=0;entryDy=0;exitX=0.5;exitY=0;exitDx=0;exitDy=0;" edge="1" parent="1" source="IURkge2gJeS1-LeG-Tbx-34" target="IURkge2gJeS1-LeG-Tbx-37">
          <mxGeometry width="50" height="50" relative="1" as="geometry">
            <mxPoint x="430" y="290" as="sourcePoint" />
            <mxPoint x="480" y="240" as="targetPoint" />
          </mxGeometry>
        </mxCell>
        <mxCell id="IURkge2gJeS1-LeG-Tbx-40" value="jurusan" style="ellipse;whiteSpace=wrap;html=1;align=center;" vertex="1" parent="1">
          <mxGeometry x="640" y="150" width="70" height="50" as="geometry" />
        </mxCell>
        <mxCell id="IURkge2gJeS1-LeG-Tbx-41" value="masa&lt;div&gt;berlaku&lt;/div&gt;" style="ellipse;whiteSpace=wrap;html=1;align=center;" vertex="1" parent="1">
          <mxGeometry x="660" y="210" width="70" height="50" as="geometry" />
        </mxCell>
        <mxCell id="IURkge2gJeS1-LeG-Tbx-42" value="" style="endArrow=none;html=1;rounded=0;entryX=0;entryY=1;entryDx=0;entryDy=0;exitX=0.5;exitY=0;exitDx=0;exitDy=0;" edge="1" parent="1" source="IURkge2gJeS1-LeG-Tbx-34" target="IURkge2gJeS1-LeG-Tbx-40">
          <mxGeometry width="50" height="50" relative="1" as="geometry">
            <mxPoint x="430" y="190" as="sourcePoint" />
            <mxPoint x="480" y="140" as="targetPoint" />
          </mxGeometry>
        </mxCell>
        <mxCell id="IURkge2gJeS1-LeG-Tbx-43" value="" style="endArrow=none;html=1;rounded=0;entryX=0;entryY=0.5;entryDx=0;entryDy=0;exitX=0.5;exitY=0;exitDx=0;exitDy=0;" edge="1" parent="1" source="IURkge2gJeS1-LeG-Tbx-34" target="IURkge2gJeS1-LeG-Tbx-41">
          <mxGeometry width="50" height="50" relative="1" as="geometry">
            <mxPoint x="430" y="190" as="sourcePoint" />
            <mxPoint x="480" y="140" as="targetPoint" />
          </mxGeometry>
        </mxCell>
        <mxCell id="IURkge2gJeS1-LeG-Tbx-44" value="Buku" style="whiteSpace=wrap;html=1;align=center;" vertex="1" parent="1">
          <mxGeometry x="580" y="630" width="100" height="55" as="geometry" />
        </mxCell>
        <mxCell id="IURkge2gJeS1-LeG-Tbx-45" value="Meminjam" style="shape=rhombus;perimeter=rhombusPerimeter;whiteSpace=wrap;html=1;align=center;" vertex="1" parent="1">
          <mxGeometry x="590" y="440" width="80" height="80" as="geometry" />
        </mxCell>
        <mxCell id="IURkge2gJeS1-LeG-Tbx-46" value="" style="endArrow=none;html=1;rounded=0;entryX=0.5;entryY=1;entryDx=0;entryDy=0;exitX=0.5;exitY=0;exitDx=0;exitDy=0;" edge="1" parent="1" source="IURkge2gJeS1-LeG-Tbx-45" target="IURkge2gJeS1-LeG-Tbx-34">
          <mxGeometry width="50" height="50" relative="1" as="geometry">
            <mxPoint x="430" y="390" as="sourcePoint" />
            <mxPoint x="480" y="340" as="targetPoint" />
          </mxGeometry>
        </mxCell>
        <mxCell id="IURkge2gJeS1-LeG-Tbx-47" value="1" style="edgeLabel;html=1;align=center;verticalAlign=middle;resizable=0;points=[];" vertex="1" connectable="0" parent="IURkge2gJeS1-LeG-Tbx-46">
          <mxGeometry x="0.0553" y="-1" relative="1" as="geometry">
            <mxPoint x="-1" y="-8" as="offset" />
          </mxGeometry>
        </mxCell>
        <mxCell id="IURkge2gJeS1-LeG-Tbx-49" value="nomor_anggota" style="ellipse;whiteSpace=wrap;html=1;align=center;fontStyle=4;" vertex="1" parent="1">
          <mxGeometry x="640" y="380" width="90" height="50" as="geometry" />
        </mxCell>
        <mxCell id="IURkge2gJeS1-LeG-Tbx-51" value="nomor buku" style="ellipse;whiteSpace=wrap;html=1;align=center;fontStyle=4;" vertex="1" parent="1">
          <mxGeometry x="700" y="430" width="90" height="50" as="geometry" />
        </mxCell>
        <mxCell id="IURkge2gJeS1-LeG-Tbx-52" value="Judul_buku" style="ellipse;whiteSpace=wrap;html=1;align=center;" vertex="1" parent="1">
          <mxGeometry x="700" y="490" width="90" height="50" as="geometry" />
        </mxCell>
        <mxCell id="IURkge2gJeS1-LeG-Tbx-53" value="Denda" style="ellipse;whiteSpace=wrap;html=1;align=center;" vertex="1" parent="1">
          <mxGeometry x="650" y="540" width="90" height="50" as="geometry" />
        </mxCell>
        <mxCell id="IURkge2gJeS1-LeG-Tbx-54" value="" style="endArrow=none;html=1;rounded=0;entryX=1;entryY=0.5;entryDx=0;entryDy=0;exitX=0.5;exitY=1;exitDx=0;exitDy=0;" edge="1" parent="1" source="IURkge2gJeS1-LeG-Tbx-49" target="IURkge2gJeS1-LeG-Tbx-45">
          <mxGeometry width="50" height="50" relative="1" as="geometry">
            <mxPoint x="440" y="460" as="sourcePoint" />
            <mxPoint x="490" y="410" as="targetPoint" />
          </mxGeometry>
        </mxCell>
        <mxCell id="IURkge2gJeS1-LeG-Tbx-55" value="" style="endArrow=none;html=1;rounded=0;entryX=0;entryY=0.5;entryDx=0;entryDy=0;exitX=1;exitY=0.5;exitDx=0;exitDy=0;" edge="1" parent="1" source="IURkge2gJeS1-LeG-Tbx-45" target="IURkge2gJeS1-LeG-Tbx-51">
          <mxGeometry width="50" height="50" relative="1" as="geometry">
            <mxPoint x="440" y="460" as="sourcePoint" />
            <mxPoint x="490" y="410" as="targetPoint" />
          </mxGeometry>
        </mxCell>
        <mxCell id="IURkge2gJeS1-LeG-Tbx-56" value="" style="endArrow=none;html=1;rounded=0;entryX=0;entryY=0.5;entryDx=0;entryDy=0;exitX=1;exitY=0.5;exitDx=0;exitDy=0;" edge="1" parent="1" source="IURkge2gJeS1-LeG-Tbx-45" target="IURkge2gJeS1-LeG-Tbx-52">
          <mxGeometry width="50" height="50" relative="1" as="geometry">
            <mxPoint x="440" y="460" as="sourcePoint" />
            <mxPoint x="490" y="410" as="targetPoint" />
          </mxGeometry>
        </mxCell>
        <mxCell id="IURkge2gJeS1-LeG-Tbx-57" value="" style="endArrow=none;html=1;rounded=0;entryX=0.5;entryY=0;entryDx=0;entryDy=0;exitX=1;exitY=0.5;exitDx=0;exitDy=0;" edge="1" parent="1" source="IURkge2gJeS1-LeG-Tbx-45" target="IURkge2gJeS1-LeG-Tbx-53">
          <mxGeometry width="50" height="50" relative="1" as="geometry">
            <mxPoint x="440" y="460" as="sourcePoint" />
            <mxPoint x="490" y="410" as="targetPoint" />
          </mxGeometry>
        </mxCell>
        <mxCell id="IURkge2gJeS1-LeG-Tbx-58" value="" style="endArrow=none;html=1;rounded=0;entryX=0.5;entryY=1;entryDx=0;entryDy=0;exitX=0.5;exitY=0;exitDx=0;exitDy=0;" edge="1" parent="1" source="IURkge2gJeS1-LeG-Tbx-44" target="IURkge2gJeS1-LeG-Tbx-45">
          <mxGeometry width="50" height="50" relative="1" as="geometry">
            <mxPoint x="440" y="540" as="sourcePoint" />
            <mxPoint x="490" y="490" as="targetPoint" />
          </mxGeometry>
        </mxCell>
        <mxCell id="IURkge2gJeS1-LeG-Tbx-66" value="many" style="edgeLabel;html=1;align=center;verticalAlign=middle;resizable=0;points=[];" vertex="1" connectable="0" parent="IURkge2gJeS1-LeG-Tbx-58">
          <mxGeometry x="-0.0436" y="-2" relative="1" as="geometry">
            <mxPoint as="offset" />
          </mxGeometry>
        </mxCell>
        <mxCell id="IURkge2gJeS1-LeG-Tbx-59" value="Kode_peminjaman" style="ellipse;whiteSpace=wrap;html=1;align=center;" vertex="1" parent="1">
          <mxGeometry x="490" y="410" width="110" height="50" as="geometry" />
        </mxCell>
        <mxCell id="IURkge2gJeS1-LeG-Tbx-60" value="Tanggal_Kembali" style="ellipse;whiteSpace=wrap;html=1;align=center;" vertex="1" parent="1">
          <mxGeometry x="410" y="460" width="110" height="50" as="geometry" />
        </mxCell>
        <mxCell id="IURkge2gJeS1-LeG-Tbx-61" value="Tanggal_Pinjam" style="ellipse;whiteSpace=wrap;html=1;align=center;" vertex="1" parent="1">
          <mxGeometry x="490" y="510" width="110" height="50" as="geometry" />
        </mxCell>
        <mxCell id="IURkge2gJeS1-LeG-Tbx-62" value="" style="endArrow=none;html=1;rounded=0;entryX=0.5;entryY=1;entryDx=0;entryDy=0;exitX=0;exitY=0.5;exitDx=0;exitDy=0;" edge="1" parent="1" source="IURkge2gJeS1-LeG-Tbx-45" target="IURkge2gJeS1-LeG-Tbx-59">
          <mxGeometry width="50" height="50" relative="1" as="geometry">
            <mxPoint x="440" y="540" as="sourcePoint" />
            <mxPoint x="490" y="490" as="targetPoint" />
          </mxGeometry>
        </mxCell>
        <mxCell id="IURkge2gJeS1-LeG-Tbx-63" value="" style="endArrow=none;html=1;rounded=0;entryX=1;entryY=0.5;entryDx=0;entryDy=0;exitX=0;exitY=0.5;exitDx=0;exitDy=0;" edge="1" parent="1" source="IURkge2gJeS1-LeG-Tbx-45" target="IURkge2gJeS1-LeG-Tbx-60">
          <mxGeometry width="50" height="50" relative="1" as="geometry">
            <mxPoint x="440" y="540" as="sourcePoint" />
            <mxPoint x="490" y="490" as="targetPoint" />
          </mxGeometry>
        </mxCell>
        <mxCell id="IURkge2gJeS1-LeG-Tbx-64" value="" style="endArrow=none;html=1;rounded=0;entryX=0.5;entryY=0;entryDx=0;entryDy=0;exitX=0;exitY=0.5;exitDx=0;exitDy=0;" edge="1" parent="1" source="IURkge2gJeS1-LeG-Tbx-45" target="IURkge2gJeS1-LeG-Tbx-61">
          <mxGeometry width="50" height="50" relative="1" as="geometry">
            <mxPoint x="440" y="540" as="sourcePoint" />
            <mxPoint x="490" y="490" as="targetPoint" />
          </mxGeometry>
        </mxCell>
        <mxCell id="IURkge2gJeS1-LeG-Tbx-67" value="nomor buku" style="ellipse;whiteSpace=wrap;html=1;align=center;fontStyle=4;" vertex="1" parent="1">
          <mxGeometry x="460" y="720" width="90" height="50" as="geometry" />
        </mxCell>
        <mxCell id="IURkge2gJeS1-LeG-Tbx-68" value="Judul_buku" style="ellipse;whiteSpace=wrap;html=1;align=center;" vertex="1" parent="1">
          <mxGeometry x="490" y="670" width="90" height="50" as="geometry" />
        </mxCell>
        <mxCell id="IURkge2gJeS1-LeG-Tbx-69" value="" style="endArrow=none;html=1;rounded=0;entryX=0.5;entryY=1;entryDx=0;entryDy=0;exitX=1;exitY=0.5;exitDx=0;exitDy=0;" edge="1" parent="1" source="IURkge2gJeS1-LeG-Tbx-68" target="IURkge2gJeS1-LeG-Tbx-44">
          <mxGeometry width="50" height="50" relative="1" as="geometry">
            <mxPoint x="440" y="620" as="sourcePoint" />
            <mxPoint x="490" y="570" as="targetPoint" />
          </mxGeometry>
        </mxCell>
        <mxCell id="IURkge2gJeS1-LeG-Tbx-70" value="" style="endArrow=none;html=1;rounded=0;exitX=1;exitY=0.5;exitDx=0;exitDy=0;entryX=0.5;entryY=1;entryDx=0;entryDy=0;" edge="1" parent="1" source="IURkge2gJeS1-LeG-Tbx-67" target="IURkge2gJeS1-LeG-Tbx-44">
          <mxGeometry width="50" height="50" relative="1" as="geometry">
            <mxPoint x="440" y="620" as="sourcePoint" />
            <mxPoint x="490" y="570" as="targetPoint" />
          </mxGeometry>
        </mxCell>
        <mxCell id="IURkge2gJeS1-LeG-Tbx-71" value="Tahun_Terbit" style="ellipse;whiteSpace=wrap;html=1;align=center;" vertex="1" parent="1">
          <mxGeometry x="490" y="770" width="90" height="50" as="geometry" />
        </mxCell>
        <mxCell id="IURkge2gJeS1-LeG-Tbx-72" value="" style="endArrow=none;html=1;rounded=0;entryX=0.5;entryY=1;entryDx=0;entryDy=0;exitX=1;exitY=0;exitDx=0;exitDy=0;" edge="1" parent="1" source="IURkge2gJeS1-LeG-Tbx-71" target="IURkge2gJeS1-LeG-Tbx-44">
          <mxGeometry width="50" height="50" relative="1" as="geometry">
            <mxPoint x="440" y="710" as="sourcePoint" />
            <mxPoint x="490" y="660" as="targetPoint" />
          </mxGeometry>
        </mxCell>
        <mxCell id="IURkge2gJeS1-LeG-Tbx-73" value="Pengarang" style="ellipse;whiteSpace=wrap;html=1;align=center;" vertex="1" parent="1">
          <mxGeometry x="680" y="670" width="90" height="50" as="geometry" />
        </mxCell>
        <mxCell id="IURkge2gJeS1-LeG-Tbx-74" value="jenis_buku" style="ellipse;whiteSpace=wrap;html=1;align=center;" vertex="1" parent="1">
          <mxGeometry x="700" y="720" width="90" height="50" as="geometry" />
        </mxCell>
        <mxCell id="IURkge2gJeS1-LeG-Tbx-75" value="Penerbit" style="ellipse;whiteSpace=wrap;html=1;align=center;" vertex="1" parent="1">
          <mxGeometry x="670" y="770" width="90" height="50" as="geometry" />
        </mxCell>
        <mxCell id="IURkge2gJeS1-LeG-Tbx-76" value="" style="endArrow=none;html=1;rounded=0;entryX=0.5;entryY=1;entryDx=0;entryDy=0;exitX=0;exitY=0.5;exitDx=0;exitDy=0;" edge="1" parent="1" source="IURkge2gJeS1-LeG-Tbx-73" target="IURkge2gJeS1-LeG-Tbx-44">
          <mxGeometry width="50" height="50" relative="1" as="geometry">
            <mxPoint x="440" y="710" as="sourcePoint" />
            <mxPoint x="490" y="660" as="targetPoint" />
          </mxGeometry>
        </mxCell>
        <mxCell id="IURkge2gJeS1-LeG-Tbx-77" value="" style="endArrow=none;html=1;rounded=0;entryX=0.5;entryY=1;entryDx=0;entryDy=0;exitX=0;exitY=0.5;exitDx=0;exitDy=0;" edge="1" parent="1" source="IURkge2gJeS1-LeG-Tbx-74" target="IURkge2gJeS1-LeG-Tbx-44">
          <mxGeometry width="50" height="50" relative="1" as="geometry">
            <mxPoint x="440" y="710" as="sourcePoint" />
            <mxPoint x="490" y="660" as="targetPoint" />
          </mxGeometry>
        </mxCell>
        <mxCell id="IURkge2gJeS1-LeG-Tbx-78" value="" style="endArrow=none;html=1;rounded=0;entryX=0;entryY=0.5;entryDx=0;entryDy=0;exitX=0.5;exitY=1;exitDx=0;exitDy=0;" edge="1" parent="1" source="IURkge2gJeS1-LeG-Tbx-44" target="IURkge2gJeS1-LeG-Tbx-75">
          <mxGeometry width="50" height="50" relative="1" as="geometry">
            <mxPoint x="440" y="710" as="sourcePoint" />
            <mxPoint x="490" y="660" as="targetPoint" />
          </mxGeometry>
        </mxCell>
      </root>
    </mxGraphModel>
  </diagram>
</mxfile>
